<?xml version="1.0" encoding="UTF-8" standalone="no"?>
<!-- Created with Inkscape (http://www.inkscape.org/) -->

<svg
   xmlns:dc="http://purl.org/dc/elements/1.1/"
   xmlns:cc="http://creativecommons.org/ns#"
   xmlns:rdf="http://www.w3.org/1999/02/22-rdf-syntax-ns#"
   xmlns:svg="http://www.w3.org/2000/svg"
   xmlns="http://www.w3.org/2000/svg"
   xmlns:sodipodi="http://sodipodi.sourceforge.net/DTD/sodipodi-0.dtd"
   xmlns:inkscape="http://www.inkscape.org/namespaces/inkscape"
   version="1.1"
   id="svg866"
   width="80"
   height="97.676155"
   viewBox="0 0 79.999995 97.676158"
   sodipodi:docname="rozwoj2.svg"
   inkscape:version="0.92.2 5c3e80d, 2017-08-06">
  <metadata
     id="metadata872">
    <rdf:RDF>
      <cc:Work
         rdf:about="">
        <dc:format>image/svg+xml</dc:format>
        <dc:type
           rdf:resource="http://purl.org/dc/dcmitype/StillImage" />
        <dc:title></dc:title>
      </cc:Work>
    </rdf:RDF>
  </metadata>
  <defs
     id="defs870">
    <clipPath
       clipPathUnits="userSpaceOnUse"
       id="clipPath2259">
      <rect
         style="opacity:1;fill:#000100;fill-opacity:1;stroke:#030000;stroke-width:8.66924286;stroke-linecap:round;stroke-linejoin:round;stroke-miterlimit:4;stroke-dasharray:none;stroke-dashoffset:70.4881897;stroke-opacity:1"
         id="rect2261"
         width="229.55182"
         height="174.62155"
         x="-69.964371"
         y="-50.020138" />
    </clipPath>
    <clipPath
       clipPathUnits="userSpaceOnUse"
       id="clipPath2263">
      <rect
         style="opacity:1;fill:#000100;fill-opacity:1;stroke:#030000;stroke-width:8.66924286;stroke-linecap:round;stroke-linejoin:round;stroke-miterlimit:4;stroke-dasharray:none;stroke-dashoffset:70.4881897;stroke-opacity:1"
         id="rect2265"
         width="229.55182"
         height="174.62155"
         x="-69.964371"
         y="-50.020138" />
    </clipPath>
  </defs>
  <sodipodi:namedview
     pagecolor="#ffffff"
     bordercolor="#666666"
     borderopacity="1"
     objecttolerance="10"
     gridtolerance="10"
     guidetolerance="10"
     inkscape:pageopacity="0"
     inkscape:pageshadow="2"
     inkscape:window-width="1440"
     inkscape:window-height="800"
     id="namedview868"
     showgrid="false"
     inkscape:snap-global="false"
     inkscape:zoom="1.0376792"
     inkscape:cx="-15.036374"
     inkscape:cy="37.045056"
     inkscape:window-x="0"
     inkscape:window-y="1"
     inkscape:window-maximized="1"
     inkscape:current-layer="svg866" />
  <path
     style="opacity:1;fill:#000100;fill-opacity:1;stroke:#030000;stroke-width:0.89346683;stroke-miterlimit:4;stroke-dasharray:none;stroke-opacity:1"
     d="m 85.416726,118.67652 c 4.12998,-0.3164 7.78034,-1.7999 9.88197,-4.0159 1.10194,-1.162 1.70109,-2.248 2.09348,-3.7947 0.27132,-1.0695 0.30483,-2.9588 0.074,-4.1737 -0.86783,-4.5678 -4.25574,-7.683497 -15.13513,-13.919098 -3.76863,-2.16 -4.86567,-2.8192 -6.59183,-3.9607 -3.16898,-2.0957 -4.84295,-3.7101 -5.41909,-5.2264 -0.22107,-0.5818 -0.36,-2.3616 -0.18434,-2.3616 0.21281,0 4.27113,0.8298 6.0512,1.2373 1.0039,0.2298 2.50037,0.6224 3.32548,0.8725 3.7985,1.1513 4.51707,1.2995 5.98237,1.2334 1.14445,-0.052 1.72819,-0.2331 2.76392,-0.8592 1.71424,-1.0363 2.89041,-2.5354 3.36461,-4.2884 0.14568,-0.5386 0.1889,-0.9736 0.19111,-1.9234 0.004,-1.6069 -0.21185,-2.5346 -1.25726,-5.4099 -0.43636,-1.2001 -0.92726,-2.5708 -1.09088,-3.0458 -0.16363,-0.4751 -1.79061,-5.2007 -3.61551,-10.5015 -1.82491,-5.3007 -3.65339,-10.5787 -4.0633,-11.7289 -0.40991,-1.1501 -0.88978,-2.5003 -1.06639,-3.0004 -0.84397,-2.3897 -2.13865,-4.1958 -3.98209,-5.5552 -1.17231,-0.8644 -2.24343,-1.3799 -3.86386,-1.8595 -0.47507,-0.1406 -1.86617,-0.5986 -3.09134,-1.0179 -5.7052,-1.9521 -11.41795,-3.249 -17.00236,-3.8596 -2.10428,-0.2301 -7.32566,-0.2303 -9.41039,-3e-4 -5.27242,0.5817 -10.85756,1.8496 -16.27499,3.6948 -1.95901,0.6673 -3.1651,1.0846 -3.45502,1.1956 -0.10002,0.038 -0.57359,0.1964 -1.0524,0.3512 -3.13311,1.0133 -5.75418,3.5328 -6.81488,6.5508 -0.11423,0.325 -0.26337,0.6369 -0.3314,0.693 -0.20718,0.171 -0.7095,1.5875 -5.34803,15.0819 -1.6673599,4.8507 -3.3665001,9.7605 -3.7758401,10.9106 -0.40935,1.1502 -0.94381,2.6537 -1.18769,3.3412 -0.66522,1.8752 -0.83445,2.8252 -0.78966,4.4326 0.0318,1.1404 0.0704,1.4166 0.2859,2.0458 0.52258,1.5255 1.52451,2.7692 3.00827,3.7344 1.1802502,0.7677 1.7730202,0.965 3.0493801,1.0152 1.2957,0.051 2.54716,-0.1843 4.90977,-0.9229 1.86371,-0.5827 3.42964,-0.9856 6.00084,-1.544 1.72973,-0.3756 4.24203,-0.8735 4.40805,-0.8735 0.0395,0 0.0521,0.379 0.0278,0.8422 -0.11036,2.1098 -1.21953,3.1795 -6.52709,6.295 -6.04309,3.5472 -7.85384,4.687 -11.0469899,6.9539 -0.7501002,0.5325 -2.0389202,1.4319 -2.8640302,1.998801 -2.17708,1.4956 -2.76117,1.9475 -3.74487,2.897197 -1.73989004,1.6797 -2.65057004,3.4343 -3.1277901,6.0263 -0.21845,1.1865 -0.27077,3.7902 -0.0929,4.6239 0.83730006,3.9247 5.3688501,6.5012 13.1027802,7.4501 3.41449,0.4189 3.35209,0.4178 24.77617,0.4178 22.70505,0 20.87113,0.051 22.79454,-0.6362 2.80634,-1.003 4.49635,-2.9799 5.13031,-6.001 0.17479,-0.833 0.1528,-2.8758 -0.0387,-3.5914 -0.98166,-3.6692 -5.045,-5.9599 -13.61148,-7.6737 -2.8595,-0.5721 -13.13696,-2.301397 -20.59377,-3.465197 -4.14592,-0.647101 -4.11937,-0.642301 -3.9551,-0.709301 0.075,-0.031 3.14362,-0.9204 6.81913,-1.9774 l 6.68275,-1.9219 1.54567,0.1045 c 5.89946,0.399 11.34041,1.2213 16.02481,2.4217 1.65311,0.4237 4.43844,1.3563 5.7964,1.940901 5.16032,2.2213 8.07871,5.185897 8.86747,9.007997 0.27545,1.3348 0.22013,3.4366 -0.12517,4.7557 -0.4912,1.8765 -1.3378,3.3822 -2.72024,4.8383 -1.00645,1.06 -1.88175,1.7629 -2.93428,2.3562 -0.3981,0.2244 -0.78519,0.448 -0.8602,0.4968 -0.16686,0.1087 18.67063,0.1095 20.08802,9e-4 z M 37.235686,62.392022 c 0.7238,-4.2465 1.87365,-8.7417 3.01771,-11.7974 1.87905,-5.0188 3.9647,-7.8687 6.40723,-8.7549 0.39575,-0.1436 0.747,-0.1927 1.39295,-0.1948 0.96867,0 1.57339,0.1675 2.43419,0.6867 3.02164,1.8224 5.7071,7.4766 7.60575,16.0139 0.42003,1.8887 0.99989,5.0502 0.93767,5.1125 -0.0194,0.019 -0.80657,-1.4067 -1.74932,-3.1691 -3.53956,-6.6168 -4.86502,-8.7254 -6.50687,-10.3518 -1.57347,-1.5587 -2.82949,-1.8177 -4.28369,-0.8833 -0.76757,0.4932 -1.7755,1.5504 -2.68166,2.8128 -1.29558,1.8048 -2.38424,3.6851 -5.84837,10.101 -0.47507,0.8798 -0.87581,1.5884 -0.89054,1.5745 -0.0147,-0.014 0.0595,-0.5314 0.16495,-1.1501 z m 12.63633,-31.906 c 4.14836,-0.5111 7.9686,-2.50195 10.59591,-5.52185 4.5034,-5.1761 5.38828,-12.4127 2.25943,-18.4775004 -1.98024,-3.8383 -5.44142,-6.79800001 -9.5076,-8.13 -2.55445,-0.8368 -5.76132,-1.0323 -8.34844,-0.509 -5.21057,1.054 -9.54657,4.4618 -11.80124,9.2749005 -2.08184,4.4441999 -2.0081,9.8550999 0.19416,14.2462999 2.41934,4.824 6.74177,8.03305 12.10715,8.98835 0.97406,0.1735 3.54191,0.247 4.50063,0.1288 z"
     id="path876"
     inkscape:connector-curvature="0"
     clip-path="url(#clipPath2259)"
     transform="matrix(0.79999956,0,0,0.79999956,1.5419015,2.3128523)" />
</svg>
