<?xml version="1.0" encoding="UTF-8" standalone="no"?>
<!-- Created with Inkscape (http://www.inkscape.org/) -->

<svg
   xmlns:dc="http://purl.org/dc/elements/1.1/"
   xmlns:cc="http://creativecommons.org/ns#"
   xmlns:rdf="http://www.w3.org/1999/02/22-rdf-syntax-ns#"
   xmlns:svg="http://www.w3.org/2000/svg"
   xmlns="http://www.w3.org/2000/svg"
   xmlns:sodipodi="http://sodipodi.sourceforge.net/DTD/sodipodi-0.dtd"
   xmlns:inkscape="http://www.inkscape.org/namespaces/inkscape"
   version="1.1"
   id="svg936"
   width="80"
   height="80.453674"
   viewBox="0 0 80 80.453674"
   sodipodi:docname="running.svg"
   inkscape:version="0.92.2 5c3e80d, 2017-08-06">
  <metadata
     id="metadata942">
    <rdf:RDF>
      <cc:Work
         rdf:about="">
        <dc:format>image/svg+xml</dc:format>
        <dc:type
           rdf:resource="http://purl.org/dc/dcmitype/StillImage" />
        <dc:title></dc:title>
      </cc:Work>
    </rdf:RDF>
  </metadata>
  <defs
     id="defs940" />
  <sodipodi:namedview
     pagecolor="#ffffff"
     bordercolor="#666666"
     borderopacity="1"
     objecttolerance="10"
     gridtolerance="10"
     guidetolerance="10"
     inkscape:pageopacity="0"
     inkscape:pageshadow="2"
     inkscape:window-width="1440"
     inkscape:window-height="800"
     id="namedview938"
     showgrid="false"
     inkscape:zoom="4.5859375"
     inkscape:cx="-11.897225"
     inkscape:cy="28.295621"
     inkscape:window-x="0"
     inkscape:window-y="1"
     inkscape:window-maximized="1"
     inkscape:current-layer="svg936" />
  <path
     id="path946"
     style="fill:#6f0000;stroke-width:0.15739419;fill-opacity:1"
     d="M 66.617188,0 C 65.335849,0.01321375 64.042578,0.33810438 62.794922,0.97460938 61.86182,1.4506393 60.259938,3.078455 59.769531,4.046875 57.41792,8.690655 59.856766,14.165748 64.8125,15.367188 70.65515,16.783637 75.891777,11.199502 74.078125,5.4882812 73.46165,3.5469912 71.986506,1.7202543 70.369141,0.89648438 69.169004,0.28522438 67.898526,-0.01321375 66.617188,0 Z M 44.470703,4.8574219 C 44.034095,4.8665919 39.8175,5.302955 35.099609,5.828125 25.985683,6.842625 25.413581,6.9491725 23.75,7.9453125 c -1.866355,1.11756 -2.071846,3.0624635 -0.414062,3.9082035 0.477322,0.24351 0.974371,0.343268 1.767578,0.355468 1.989724,0.03053 15.711481,-0.2227 16.919922,-0.3125 l 1.18164,-0.08789 3.587891,2.855468 3.58789,2.857422 -0.361328,0.275391 c -0.198942,0.15165 -3.443328,2.390843 -7.208984,4.976563 -3.765656,2.58572 -7.31394,5.073183 -7.886719,5.527343 -1.343302,1.06514 -2.402537,2.275671 -2.939453,3.363281 -0.378669,0.767061 -0.427734,1.044804 -0.427734,2.439454 0,1.35569 0.0612,1.722228 0.435547,2.642578 0.532122,1.30824 3.773615,6.203778 4.253906,6.423828 0.191173,0.08759 0.773569,0.806959 1.292968,1.599609 0.519401,0.79265 2.058743,3.07375 3.421876,5.06836 l 2.478515,3.626953 -0.509765,0.09961 c -0.281048,0.05505 -1.681022,0.144972 -3.109376,0.201172 -4.092318,0.16104 -10.945216,0.553499 -12.658203,0.724609 -2.795382,0.27922 -4.400404,1.382327 -4.873047,3.347657 -0.344336,1.43182 1.249019,3.279226 3.28711,3.810547 0.2597,0.0677 3.978615,0.171421 8.263672,0.232421 4.285057,0.061 10.51874,0.105657 13.851562,0.09766 L 53.75,61.962891 54.611328,61.474609 c 1.267974,-0.71919 1.778228,-1.425398 1.861328,-2.574218 0.06428,-0.88867 0.02504,-1.015086 -0.832031,-2.634766 -1.004526,-1.89833 -5.086544,-8.815371 -8.386719,-14.212891 l -2.164062,-3.541015 6.279297,-3.978516 c 3.454257,-2.1881 6.324173,-3.935412 6.376953,-3.882812 0.05278,0.05256 0.245463,1.708697 0.427734,3.679687 0.306539,3.31478 0.364932,3.64493 0.779297,4.40625 0.609245,1.11938 1.047266,1.321175 2.820313,1.296875 0.780701,-0.01073 1.915516,-0.05962 2.521484,-0.107422 0.605968,-0.04777 3.653126,-0.18801 6.769531,-0.3125 6.22521,-0.24868 6.903992,-0.353189 7.896485,-1.224609 1.209078,-1.06159 1.390531,-2.705357 0.398437,-3.591797 -0.703245,-0.62835 -1.600231,-0.739637 -6.800781,-0.841797 -2.553721,-0.05016 -5.409592,-0.135753 -6.347656,-0.189453 l -1.707032,-0.09766 0.04102,-5.683594 0.04102,-5.683594 -2.482422,-3.935547 -2.482422,-3.935546 -6.458985,-4.40625 C 49.610467,7.599567 46.380597,5.4418356 45.984375,5.2285156 45.469337,4.9512256 45.038237,4.8455219 44.470703,4.8574219 Z M 40.015625,64.716797 c -3.926988,0 -5.703125,0.05266 -5.703125,0.167969 0,0.09211 -1.081792,1.350481 -2.404297,2.794922 -5.447426,5.9497 -6.68787,7.615511 -7.037109,9.457031 -0.25877,1.36449 0.288588,2.480154 1.480468,3.021484 0.353072,0.16035 0.822574,0.292922 1.044922,0.294922 0.786229,0.0067 2.035098,-0.486376 3.191407,-1.259766 1.276574,-0.85382 6.03224,-5.332018 11.591797,-10.917968 l 3.541015,-3.558594 z" />
  <path
     id="path1011"
     style="fill:#19002c;fill-opacity:1;stroke-width:0.15739419"
     d="m 0.10548878,18.821375 v 3.148438 3.148437 H 13.642597 27.179707 l 4.523437,-3.009766 c 2.137353,-1.422285 3.483676,-2.3341 4.015625,-2.705078 0.03582,-0.155596 0.07144,-0.311248 0.107422,-0.466796 -1.332167,-0.06681 -8.155678,-0.115235 -17.511719,-0.115235 z m 0,12.277344 v 3.226562 3.226563 H 11.919941 23.734394 l -0.109375,-0.353516 c -0.06008,-0.19477 -0.197637,-0.531627 -0.30664,-0.748047 -0.589605,-1.17061 -0.67303,-3.564965 -0.158204,-4.560547 0.130951,-0.25323 0.238282,-0.536053 0.238282,-0.626953 0,-0.11381 -3.619278,-0.164062 -11.646485,-0.164062 z m 0,12.433594 v 3.226562 3.226563 H 15.292988 c 10.177387,0 15.189453,-0.05304 15.189453,-0.160157 0,-0.08793 -0.895431,-1.539862 -1.988281,-3.226562 L 26.507832,43.532313 H 13.30666 Z"
     inkscape:connector-curvature="0" />
</svg>
