<?xml version="1.0" encoding="UTF-8" standalone="no"?>
<!-- Created with Inkscape (http://www.inkscape.org/) -->

<svg
   xmlns:dc="http://purl.org/dc/elements/1.1/"
   xmlns:cc="http://creativecommons.org/ns#"
   xmlns:rdf="http://www.w3.org/1999/02/22-rdf-syntax-ns#"
   xmlns:svg="http://www.w3.org/2000/svg"
   xmlns="http://www.w3.org/2000/svg"
   xmlns:sodipodi="http://sodipodi.sourceforge.net/DTD/sodipodi-0.dtd"
   xmlns:inkscape="http://www.inkscape.org/namespaces/inkscape"
   version="1.1"
   id="svg1896"
   width="80"
   height="105.73779"
   viewBox="0 0 80 105.73779"
   sodipodi:docname="salsa.svg"
   inkscape:version="0.92.2 5c3e80d, 2017-08-06">
  <metadata
     id="metadata1902">
    <rdf:RDF>
      <cc:Work
         rdf:about="">
        <dc:format>image/svg+xml</dc:format>
        <dc:type
           rdf:resource="http://purl.org/dc/dcmitype/StillImage" />
        <dc:title></dc:title>
      </cc:Work>
    </rdf:RDF>
  </metadata>
  <defs
     id="defs1900" />
  <sodipodi:namedview
     pagecolor="#ffffff"
     bordercolor="#666666"
     borderopacity="1"
     objecttolerance="10"
     gridtolerance="10"
     guidetolerance="10"
     inkscape:pageopacity="0"
     inkscape:pageshadow="2"
     inkscape:window-width="1440"
     inkscape:window-height="800"
     id="namedview1898"
     showgrid="false"
     inkscape:snap-global="false"
     inkscape:zoom="1.8365759"
     inkscape:cx="-3.6297802"
     inkscape:cy="36.6334"
     inkscape:window-x="0"
     inkscape:window-y="1"
     inkscape:window-maximized="1"
     inkscape:current-layer="svg1896" />
  <path
     id="path2451"
     style="fill:#000000;stroke-width:0.44964176"
     d="m 39.241457,0.09534144 -1.86914,0.91992186 c -3.323907,1.63195 -5.242188,4.1114606 -5.242188,6.7753906 0,2.3599301 -0.690742,3.1601561 -2.771484,3.1601561 -3.503022,0 -7.557759,3.15661 -14.017579,10.90039 -1.38956,1.67196 -3.14627,4.199087 -3.90625,5.623047 -0.75758,1.42396 -1.6653998,3.072911 -2.0253898,3.712891 -0.35679,0.62398 -1.60431,3.200398 -2.77148,5.736328 -1.46476,3.18391 -2.36087,4.607422 -2.88086,4.607422 -0.83117,0 -1.30274,0.880243 -1.30274,2.408203 0,0.54399 -0.53561,1.766583 -1.18359,2.726563 -1.07116996,1.58395 -1.15814996,2.00833 -0.91015996,4.65625 0.19439,2.07195 0.67651996,3.632253 1.67968996,5.408203 1.37596,2.43193 1.39148,2.527852 0.6875,4.007812 -1.50716,3.15911 -0.39981,7.119733 2.26172,8.095703 0.70958,0.256 3.31242,0.848057 5.7851498,1.248047 2.47273,0.46399 4.74661,0.86336 5.0586,0.94336 0.88238,0.24799 0.65921,0.983223 -0.53516,1.783203 -0.60078,0.39199 -1.2324,1.344551 -1.40039,2.144531 -0.168,0.78398 -0.45645,1.640869 -0.64844,1.880859 -0.1888,0.24799 -0.98165,1.966316 -1.76562,3.822266 -2.3639398,5.60384 -4.6352498,10.020066 -6.1328098,11.916016 -1.80875,2.28793 -2.01183,2.983656 -2.04883,6.935546 -0.0392,4.15989 0.69957,5.20077 3.55469,4.80078 1.06157,-0.16 2.37417,-0.48079 2.91015,-0.80078 0.5391898,-0.23999 2.1098298,-0.52339 3.4921898,-0.55859 3.5879,-0.096 7.39512,-2.48119 5.08398,-3.201175 -1.60955,-0.49599 -3.74804,-1.695713 -3.74804,-2.095703 0,-0.23199 1.09603,-1.566837 2.43359,-2.966797 1.97755,-2.07194 2.78162,-3.432157 4.30078,-7.248047 1.028005,-2.58393 2.12923,-5.160791 2.449221,-5.800781 l 0.576171,-1.103516 1.75,2.263672 c 0.963173,1.23997 2.105309,2.832754 2.529297,3.552734 0.427988,0.71198 1.660266,2.320025 2.740235,3.583985 1.556757,1.81595 2.305059,3.327219 3.607422,7.287109 0.907175,2.74392 1.642578,5.191649 1.642578,5.431639 0,0.24 -0.402452,0.56072 -0.898438,0.72071 -0.571184,0.176 -0.898437,0.65502 -0.898437,1.375 l 0.0039,-0.0176 c 0,1.03757 0.14032,1.09761 2.65625,1.09766 2.420732,-3e-5 2.762461,-0.12061 3.832031,-1.39258 0.965573,-1.16796 1.293906,-1.32765 1.837891,-0.84766 0.367989,0.30399 0.664062,0.79134 0.664062,1.11133 0,0.27999 0.760326,0.67985 1.6875,0.83984 2.210738,0.39399 15.852289,0.39637 18.908203,-0.006 l 2.384766,-0.32031 -2.384766,-0.83203 c -3.21591,-1.11997 -5.793689,-2.99225 -6.880859,-4.99219 -0.816409,-1.50042 -8.392551,-8.900715 -13.619141,-13.328125 -1.60414,-0.791339 -3.243231,-2.238388 -4.708984,-4.490235 -0.07948,-0.122101 -0.158246,-0.24283 -0.240234,-0.363281 -0.114326,-0.177438 -0.226662,-0.356593 -0.339844,-0.535156 -0.626344,-0.541479 -1.19827,-1.368166 -1.910156,-2.720703 -0.142952,-0.08112 -0.285828,-0.162595 -0.423828,-0.251953 -0.10643,-0.07037 -0.212216,-0.142393 -0.314454,-0.21875 -0.09814,-0.07333 -0.191853,-0.151084 -0.285156,-0.230469 -0.0802,-0.07108 -0.160609,-0.142869 -0.236328,-0.21875 -0.07255,-0.07186 -0.140496,-0.146958 -0.208984,-0.222656 -0.07183,-0.0797 -0.141332,-0.163176 -0.207032,-0.248047 -0.06191,-0.08108 -0.121029,-0.16265 -0.179687,-0.246094 -0.06212,-0.09269 -0.120835,-0.188015 -0.175781,-0.285156 -0.05199,-0.09188 -0.103851,-0.184495 -0.150391,-0.279297 -0.05226,-0.103254 -0.101761,-0.208411 -0.152344,-0.3125 -0.04681,-0.106781 -0.09518,-0.211322 -0.136718,-0.320312 -0.0439,-0.112235 -0.08736,-0.226009 -0.126953,-0.339844 -0.04633,-0.129326 -0.08827,-0.259413 -0.128907,-0.390625 -0.03786,-0.129476 -0.07849,-0.257781 -0.111328,-0.388672 -0.03493,-0.134091 -0.07127,-0.269039 -0.101562,-0.404297 -0.03576,-0.149681 -0.06658,-0.300869 -0.09961,-0.451172 -0.0279,-0.150548 -0.05666,-0.300523 -0.08398,-0.451172 -0.004,-0.02411 -0.0076,-0.0482 -0.01172,-0.07227 -0.01723,-0.04876 -0.03554,-0.09447 -0.05273,-0.150391 -0.0266,-0.08787 -0.05323,-0.17618 -0.07422,-0.265625 -0.03002,-0.111535 -0.05918,-0.222253 -0.08008,-0.335937 -0.02939,-0.143277 -0.05563,-0.288462 -0.07422,-0.433594 -0.01261,-0.106794 -0.02551,-0.213202 -0.03516,-0.320313 -0.01038,-0.116083 -0.01662,-0.231317 -0.02344,-0.347656 -0.0044,-0.09359 -0.0097,-0.187638 -0.01367,-0.28125 -6.41e-4,-0.01826 4.75e-4,-0.03646 0,-0.05469 -0.01033,-0.02282 -0.02084,-0.04558 -0.03125,-0.06836 C 33.07023,70.077534 32.942388,69.794904 32.819575,69.509236 32.678379,69.19006 32.535869,68.872419 32.401607,68.550251 32.288464,68.267922 32.154813,67.993029 32.042231,67.710408 31.89012,67.349006 31.741427,66.985075 31.596919,66.620564 31.453231,66.24988 31.316102,65.878418 31.17895,65.505329 31.04429,65.130634 30.91103,64.754535 30.780513,64.378376 30.651584,63.995782 30.519647,63.614138 30.401607,63.227986 30.268579,62.811043 30.140214,62.393181 30.020747,61.972126 29.89169,61.524992 29.767088,61.075816 29.65356,60.62447 29.5476,60.203655 29.448648,59.781622 29.350825,59.358845 29.245066,58.89568 29.14628,58.431498 29.050044,57.966267 c -0.08489,-0.439566 -0.167538,-0.881173 -0.244141,-1.322266 -0.0782,-0.451346 -0.15197,-0.902278 -0.21875,-1.355469 -0.07499,-0.49506 -0.14284,-0.992226 -0.195312,-1.490234 -0.05003,-0.456617 -0.101761,-0.913004 -0.136719,-1.371094 -0.0365,-0.443986 -0.06347,-0.887337 -0.08984,-1.332031 -0.02591,-0.447703 -0.0432,-0.895507 -0.05664,-1.34375 -0.01232,-0.426171 -0.01673,-0.852958 -0.01758,-1.279297 -0.0022,-0.366519 -0.0039,-0.733088 -0.0059,-1.099609 -0.0019,-0.427455 -0.0023,-0.856014 0.01563,-1.283203 0.01104,-0.34455 0.02232,-0.688714 0.03516,-1.033203 0.01223,-0.330792 0.02437,-0.661495 0.03906,-0.992188 0.01385,-0.301588 0.02826,-0.602848 0.04492,-0.904297 0.01549,-0.280989 0.03085,-0.560955 0.04883,-0.841797 0.01737,-0.270872 0.03664,-0.541807 0.05664,-0.8125 0.02009,-0.268999 0.04128,-0.538059 0.06641,-0.80664 0.02278,-0.242826 0.04707,-0.486134 0.07422,-0.728516 0.02679,-0.237156 0.05453,-0.474601 0.08789,-0.710937 0.03334,-0.239023 0.06749,-0.477143 0.109375,-0.714844 0.0375,-0.216279 0.07664,-0.433463 0.121094,-0.648438 0.05057,-0.238683 0.103611,-0.476475 0.164062,-0.71289 0.04989,-0.191583 0.03486,-0.121693 0.01953,-0.05469 0.03723,-0.188556 0.0773,-0.377294 0.121094,-0.564453 0.04135,-0.170156 0.08105,-0.339339 0.128906,-0.507812 0.02007,-0.07235 0.05747,-0.181602 0.11914,-0.376953 0.0014,-0.0061 -0.0015,0.0024 0,-0.0039 0.0204,-0.08025 0.04698,-0.158326 0.06836,-0.238281 0.02051,-0.102729 0.03938,-0.206863 0.06445,-0.308594 0.554046,-2.247997 1.415969,-3.975898 2.431641,-5.238281 0.004,-0.02014 0.0098,-0.04253 0.01367,-0.0625 0.07043,-0.345263 0.144384,-0.690951 0.236329,-1.03125 0.0345,-0.131013 0.07694,-0.289929 0.109374,-0.410156 0.121129,-0.498163 0.10816,-0.407307 0.183594,-0.701172 0.02361,-0.0852 0.04744,-0.170983 0.07227,-0.255859 0.0035,-0.01494 0.0063,-0.02997 0.0098,-0.04492 0.227215,-0.915916 -0.07108,0.306654 0.142578,-0.560547 0.125762,-0.483447 -0.04624,0.233258 0.03906,-0.152344 0.0135,-0.06103 0.02712,-0.12266 0.04102,-0.183594 0.0081,-0.04639 0.002,-0.01401 0.02539,-0.15039 0.02152,-0.112684 -0.0019,0.0043 0.0039,-0.02539 -0.01569,-0.07942 -0.01754,-0.119114 0.0098,-0.08008 0.004,-0.150436 -0.0028,-0.0134 0.002,-0.08594 0.05522,-0.845747 0.163337,-1.49786 0.306641,-2.017578 -0.494619,0.349183 -1.068709,0.961801 -1.75,1.931641 -0.08433,0.120044 -0.153331,0.250204 -0.230469,0.375 l -0.002,0.002 c -0.06359,0.102988 -0.136253,0.200687 -0.191406,0.308594 0.130143,-0.239578 0.212848,-0.373585 0.363281,-0.623047 0.05671,-0.09804 0.09928,-0.204245 0.162109,-0.298828 0.669444,-1.007841 1.23436,-1.626371 1.732422,-1.994141 0.326129,-0.948571 0.817235,-1.283726 1.421875,-1.199219 0.03794,0.0053 0.07838,0.01883 0.117188,0.02734 0.06542,-0.33285 0.129775,-0.603186 0.191406,-0.722656 0.263993,-0.51199 0.888592,-1.375557 1.392578,-1.935547 l 0.914063,-1 1.943359,1.791016 c 2.323935,2.18394 3.218458,2.280418 3.898438,0.480468 0.303192,-0.79198 0.828606,-1.351562 1.308593,-1.351562 0.440787,0 0.800782,-0.240635 0.800782,-0.640625 0,-0.38399 0.373903,-0.863526 0.83789,-1.103516 0.457587,-0.248 0.961286,-1.111754 1.113282,-1.927734 0.151994,-0.80798 0.696811,-2.89705 1.216796,-4.625 C 49.928343,6.2867142 49.942046,6.6159829 48.0325,4.7280329 46.95973,3.6720629 44.942014,2.4482317 42.766875,1.5522517 Z M 32.788332,26.23206 c -0.0015,0.0581 6.91e-4,-0.004 0,0.0332 -0.0029,0.01542 0.0046,-0.02582 0.002,-0.01172 5.59e-4,-0.0046 0.0014,-0.01254 0.002,-0.01758 -8.94e-4,-0.0013 -0.003,-0.0027 -0.0039,-0.0039 z m 0,0.0332 c 0.01167,-0.06215 0.0011,-0.0085 -0.0098,0.04687 0.0054,0.02757 -0.0059,0.0039 0.0078,0.05469 -0.01161,0.36882 0.0013,-0.0261 0.002,-0.08789 9.4e-5,-0.0096 -2.84e-4,0.0016 0,-0.01367 z"
     inkscape:connector-curvature="0" />
  <path
     id="path2449"
     style="fill:#580000;stroke-width:0.44964176;fill-opacity:1"
     d="m 74.859375,1.796875 c -0.131996,0 -0.540401,0.7121919 -0.900391,1.5761719 -0.361589,0.85597 -0.96776,1.5761719 -1.34375,1.5761719 -0.509427,0 -0.632651,0.3515825 -0.472656,1.3515624 0.111997,0.7439702 0.304019,1.9362711 0.416016,2.65625 0.258393,1.6455498 -0.977622,3.3976488 -6.75586,9.6054688 -2.355933,2.52793 -5.61202,6.576445 -7.234375,8.984375 -3.314307,4.92786 -3.765099,5.1432 -6.390625,3.03125 -2.594327,-2.04794 -4.186208,-2.376095 -7.294922,-1.328125 -1.443958,0.48799 -3.896814,1.056875 -5.451171,1.296875 -1.553556,0.25599 -3.393863,0.654541 -4.089844,0.894531 -0.69598,0.23999 -1.381395,0.480469 -1.525391,0.480469 -0.04006,0 -0.06352,-0.111893 -0.08008,-0.269531 -0.03057,0.01268 -0.184299,0.07888 -0.0918,0.04102 -0.317836,0.13744 -0.16477,0.07744 -0.515625,0.230469 0.430998,-0.183744 -0.605458,0.26687 -0.248047,0.111328 -0.441349,0.194419 -0.227863,0.103375 -0.597656,0.263672 -0.176316,0.07686 -0.257088,0.113698 -0.501953,0.230469 -0.254465,0.11471 -0.507874,0.233543 -0.761719,0.349609 -0.225994,0.106583 -0.450993,0.215074 -0.675781,0.324219 -0.219268,0.113886 -0.45244,0.203435 -0.666016,0.328125 -0.222236,0.110484 -0.437786,0.23296 -0.652343,0.357422 -0.190121,0.111606 -0.376003,0.23107 -0.556641,0.357422 -0.216907,0.161338 -0.426029,0.33263 -0.636719,0.501953 -0.256445,0.208965 -0.503422,0.429953 -0.75,0.650391 -0.232699,0.215572 -0.460488,0.434704 -0.68164,0.662109 -0.237205,0.238219 -0.461694,0.48814 -0.681641,0.742187 -0.223971,0.260929 -0.439263,0.530321 -0.646484,0.804688 -0.20712,0.277528 -0.407765,0.559353 -0.59375,0.851562 -0.220917,0.332862 -0.423446,0.676437 -0.621094,1.023438 -0.209517,0.360952 -0.396937,0.734588 -0.580078,1.109375 -0.206838,0.42222 -0.387682,0.855253 -0.56836,1.289062 -0.196664,0.486285 -0.369399,0.982386 -0.544922,1.476563 -0.19114,0.539955 -0.37092,1.083217 -0.544921,1.628906 -0.17462,0.545081 -0.336066,1.095316 -0.490235,1.646484 -0.159737,0.574909 -0.303175,1.154446 -0.443359,1.734376 -0.146776,0.610238 -0.282731,1.222635 -0.416016,1.835937 -0.12182,0.587047 -0.233743,1.175193 -0.33789,1.765625 -0.01668,0.09337 -0.02718,0.187732 -0.04297,0.28125 0.319993,1.003518 0.484593,2.207245 0.423828,3.617188 -0.0022,0.05187 -0.0033,0.104399 -0.0059,0.15625 -0.0022,-0.100857 0.0011,0.389423 0,0.43164 -6.33e-4,0.230212 -0.0047,0.266041 -0.002,0.498047 6.54e-4,0.137612 0.0027,0.276453 0.0039,0.414063 -0.0039,-0.04798 0.01703,0.324652 0.02148,0.392578 0.01025,0.164757 0.02141,0.329485 0.0332,0.49414 0.0107,0.153431 0.02094,0.305671 0.0332,0.458985 0.01233,0.152453 0.02553,0.304679 0.03906,0.457031 0.0138,0.15269 0.02812,0.306392 0.04297,0.458984 0.01528,0.153777 0.03045,0.307281 0.04687,0.460938 0.01636,0.15052 0.03279,0.300836 0.05078,0.451172 0.01738,0.143743 0.03448,0.288257 0.05469,0.43164 0.01612,0.12098 0.03444,0.240661 0.05273,0.361328 0.02038,0.126316 0.04018,0.252915 0.0625,0.378907 0.02264,0.125629 0.04589,0.251652 0.07031,0.376953 0.02322,0.117894 0.0471,0.235969 0.07227,0.353515 0.833735,1.046121 1.482222,2.546186 1.757812,4.53711 0.0132,0.09534 0.02652,0.190005 0.04102,0.285156 0.02409,0.153481 0.04713,0.307952 0.07422,0.460937 0.02056,0.121083 0.04365,0.241029 0.06836,0.361329 0.0272,0.13157 0.05566,0.26363 0.08594,0.394531 0.02126,0.09049 0.04237,0.181665 0.06641,0.271484 0.03332,0.11682 0.0926,0.328903 0.134766,0.484375 0.04312,0.163178 0.08559,0.326616 0.126953,0.490235 0.03064,0.116181 0.06326,0.232507 0.09766,0.347656 0.03024,0.100538 0.06003,0.198343 0.0918,0.294922 0.04354,0.131536 0.05949,0.184313 0.134765,0.384765 0.03674,0.101952 0.06997,0.195288 0.115235,0.306641 0.0658,0.168869 0.139488,0.347882 0.195312,0.511719 0.0484,0.127746 0.09534,0.256145 0.146485,0.382812 0.06588,0.163591 0.0795,0.205803 0.169921,0.402344 0.0724,0.165674 0.150465,0.339524 0.220704,0.509766 0.05392,0.128317 0.108109,0.256223 0.166015,0.382812 -0.06507,-0.127528 0.231625,0.489929 0.244141,0.541016 0.04629,0.104636 0.09354,0.208096 0.144531,0.310547 0.09926,0.203795 0.195822,0.409671 0.287109,0.617187 0.05503,0.118547 0.118373,0.246772 0.15625,0.324219 0.112716,0.215361 0.221266,0.431112 0.326172,0.65039 0.068,0.138769 0.140311,0.277648 0.212891,0.414063 0.112475,0.20924 0.230416,0.415162 0.341797,0.625 0.09542,0.183505 0.196304,0.363311 0.298828,0.542969 0.100517,0.191195 0.209058,0.378765 0.3125,0.568359 0.09995,0.188324 0.206662,0.371605 0.3125,0.556641 0.08958,0.167306 0.188439,0.328965 0.285156,0.492187 0.09448,0.164857 0.186118,0.331162 0.28711,0.492188 0.112766,0.18862 0.222981,0.379859 0.335937,0.568359 0.129828,0.213133 0.255298,0.428865 0.380859,0.644531 0.129154,0.21339 0.258009,0.426613 0.382813,0.642579 0.148713,0.249842 0.292996,0.503072 0.443359,0.751953 0.100715,0.178903 0.205379,0.355748 0.308594,0.533203 0.129248,0.216059 0.255185,0.432623 0.384766,0.648437 0.13172,0.221793 0.264494,0.44292 0.390625,0.667969 0.10532,0.185278 0.209061,0.372256 0.3125,0.558594 0.112464,0.195737 0.226003,0.390718 0.335937,0.58789 0.08938,0.160934 0.178253,0.322356 0.265625,0.484375 0.09709,0.175891 0.193269,0.352599 0.285157,0.53125 0.08806,0.167449 0.167175,0.328712 0.251953,0.488282 0.09081,0.181159 0.179488,0.363373 0.269531,0.544921 0.0753,0.157241 0.152889,0.313191 0.222656,0.472657 0.0794,0.173273 0.162293,0.345799 0.236328,0.521484 0.07819,0.177573 0.160819,0.353591 0.234375,0.533203 0.06573,0.163957 0.14003,0.324369 0.201172,0.490235 0.08093,0.213694 0.08181,0.21424 0.162109,0.425781 0.06895,0.184801 0.137552,0.36925 0.199219,0.55664 0.04675,0.134704 0.113253,0.321763 0.16211,0.478516 0.004,0.01205 0.09247,0.280169 0.11914,0.355469 0.05937,0.191415 0.118031,0.383673 0.173828,0.576172 0.03537,0.128686 0.06936,0.257652 0.111329,0.40625 0.0362,0.129893 0.07625,0.26776 0.105468,0.392578 0.0058,0.02099 0.05237,0.190679 0.07422,0.265625 0.02605,0.09105 0.04534,0.165495 0.07031,0.257812 0.0192,0.03458 0.05294,0.09353 0.03906,0.07031 -0.208787,-0.349236 -0.180897,-0.314238 0.04102,0.06445 -0.01506,-0.0309 0.06021,0.114289 0.113281,0.212891 1.040659,2.012699 0.832745,2.824655 -0.01172,3.023437 0.116168,0.337892 0.218552,0.601752 0.34375,0.982422 0.907175,2.74392 1.642578,5.19165 1.642578,5.43164 0,0.24 -0.402451,0.55876 -0.898437,0.71875 -0.571184,0.176 -0.898438,0.65697 -0.898438,1.37695 l 0.0039,-0.0176 c 0,1.03757 0.14032,1.0957 2.65625,1.0957 2.420729,0 2.762461,-0.11866 3.832031,-1.39063 0.965573,-1.16796 1.293905,-1.3296 1.83789,-0.84961 0.367989,0.30399 0.664063,0.7933 0.664063,1.11329 0,0.27999 0.760326,0.67985 1.6875,0.83984 2.210738,0.39399 15.852289,0.39567 18.908203,-0.006 l 2.384766,-0.32031 -2.384766,-0.83203 c -3.21591,-1.11997 -5.793689,-2.99225 -6.880859,-4.992191 -0.840536,-1.54476 -8.867042,-9.368448 -14.095704,-13.736328 -1.367961,-1.14397 -2.316406,-2.272042 -2.316406,-2.832032 0,-0.59198 -0.507509,-1.119541 -1.488281,-1.519531 -1.109569,-0.46398 -1.862496,-1.328453 -2.947266,-3.40039 -0.800777,-1.52796 -1.345168,-2.873204 -1.201171,-3.033204 0.139994,-0.13599 1.168387,0.377755 2.285156,1.177735 2.159139,1.52796 3.289334,1.758689 4.162109,0.886719 1.565556,-1.567961 0.02146,-4.750988 -3.248047,-6.710938 -3.433503,-2.05594 -4.385011,-4.441406 -1.771484,-4.441406 1.014371,0 1.101696,-0.134775 0.845703,-1.302735 -0.167995,-0.79198 -0.07957,-1.465 0.232422,-1.625 0.34479,-0.21599 0.07371,-0.782592 -0.822266,-1.726562 -2.86072,-3.01992 -3.536187,-6.443928 -1.957031,-9.923828 0.455987,-0.99997 1.052226,-2.393213 1.324219,-3.033203 0.627662,-1.53595 2.746589,-1.931547 10.083984,-1.935547 6.171826,0 6.86569,0.376375 7.513672,4.072265 1.05037,5.97184 1.57895,7.828477 2.945313,10.316407 1.915145,3.48791 1.958318,5.222602 0.167968,6.726562 -0.758378,0.65598 -1.920645,1.136719 -2.640625,1.136719 -1.531157,0 -2.082431,0.679442 -1.314453,1.607422 0.344791,0.39999 1.161057,0.638147 2.173828,0.560547 l 1.621094,-0.160157 0.255859,3.144532 c 0.34639,4.22388 0.721654,5.263349 1.765625,4.943359 0.574384,-0.19999 0.919146,6.45e-4 1.119141,0.640625 0.415188,1.31996 1.747351,1.231914 1.443359,-0.08008 -0.127996,-0.55198 -0.35191,-1.720017 -0.503906,-2.583984 -0.239993,-1.359972 -0.199111,-1.440684 0.296875,-0.720704 1.502358,2.23993 2.250215,2.96069 2.658203,2.720704 0.263993,-0.159994 0.160316,-0.568839 -0.263672,-1.048829 -0.913176,-1.00797 -0.946905,-3.630859 -0.04687,-3.630859 0.36079,0 1.064374,0.414629 1.56836,0.974609 1.607155,1.71996 1.492784,0.53655 -0.167969,-1.77539 -1.07917,-1.50395 -1.605622,-2.727983 -1.607422,-3.751953 0,-0.83198 -0.279243,-2.04752 -0.615234,-2.6875 -0.912774,-1.74396 -1.688543,-5.367535 -1.560547,-7.271485 0.112797,-1.66495 0.12141,-1.671875 2.126953,-1.671875 1.946346,0 4.097656,-1.24117 4.097656,-2.36914 0,-0.22399 0.389154,-0.99088 0.869141,-1.63086 0.481586,-0.67198 1.009739,-1.824942 1.177734,-2.544922 0.171195,-0.72798 0.602901,-1.807207 0.962891,-2.367187 0.387671,-0.62399 0.512494,-1.320801 0.3125,-1.800781 -0.191995,-0.40799 -0.365938,-1.023843 -0.392578,-1.423828 -0.0616,-0.855981 -1.18488,-3.215567 -1.88086,-3.935547 -0.293592,-0.31999 -1.034595,-0.560547 -1.642578,-0.560547 -0.685581,0 -1.995587,-0.799733 -3.435547,-2.095703 -1.983382,-1.78395 -2.286868,-2.271692 -2.046875,-3.263672 0.764298,-3.16951 8.311807,-15.135838 13.046875,-20.679688 1.563956,-1.83194 1.964716,-2.68895 2.220703,-4.71289 C 76.830009,8.3908692 77.31511,7.2127569 78.455078,5.7167969 79.303854,4.5968269 80,3.3902244 80,2.9902344 80,1.8622644 78.382736,2.1487019 77.568359,3.3886719 76.605186,4.8446319 76.146308,4.7903506 75.570312,3.1503906 75.314319,2.4384106 74.995371,1.796875 74.859375,1.796875 Z" />
</svg>
