<?xml version="1.0" encoding="UTF-8" standalone="no"?>
<!-- Created with Inkscape (http://www.inkscape.org/) -->

<svg
   xmlns:dc="http://purl.org/dc/elements/1.1/"
   xmlns:cc="http://creativecommons.org/ns#"
   xmlns:rdf="http://www.w3.org/1999/02/22-rdf-syntax-ns#"
   xmlns:svg="http://www.w3.org/2000/svg"
   xmlns="http://www.w3.org/2000/svg"
   xmlns:sodipodi="http://sodipodi.sourceforge.net/DTD/sodipodi-0.dtd"
   xmlns:inkscape="http://www.inkscape.org/namespaces/inkscape"
   version="1.1"
   id="svg1174"
   width="80"
   height="114.48667"
   viewBox="0 0 80 114.48667"
   sodipodi:docname="travel.svg"
   inkscape:version="0.92.2 5c3e80d, 2017-08-06">
  <metadata
     id="metadata1180">
    <rdf:RDF>
      <cc:Work
         rdf:about="">
        <dc:format>image/svg+xml</dc:format>
        <dc:type
           rdf:resource="http://purl.org/dc/dcmitype/StillImage" />
        <dc:title></dc:title>
      </cc:Work>
    </rdf:RDF>
  </metadata>
  <defs
     id="defs1178" />
  <sodipodi:namedview
     pagecolor="#ffffff"
     bordercolor="#666666"
     borderopacity="1"
     objecttolerance="10"
     gridtolerance="10"
     guidetolerance="10"
     inkscape:pageopacity="0"
     inkscape:pageshadow="2"
     inkscape:window-width="1440"
     inkscape:window-height="800"
     id="namedview1176"
     showgrid="false"
     inkscape:zoom="3.337544"
     inkscape:cx="-32.541604"
     inkscape:cy="43.194634"
     inkscape:window-x="0"
     inkscape:window-y="1"
     inkscape:window-maximized="1"
     inkscape:current-layer="svg1174" />
  <path
     id="path1727"
     style="fill:#000000;stroke-width:0.57384771"
     d="M 57.970703,0.00195313 C 57.508552,0.01249945 57.037855,0.06178994 56.558594,0.15234375 47.906726,1.7870677 45.924056,12.633947 53.439453,17.216797 c 3.724288,2.27104 9.785361,0.968251 12.126953,-2.605469 C 69.685074,8.3254412 64.902967,-0.1562417 57.970703,0.00195313 Z M 46.107422,18.300781 c -3.123183,0 -5.910885,2.087577 -7.429688,5.566407 -0.921926,2.111688 -6.339762,24.269494 -6.009765,24.578124 0.09,0.08417 3.577559,-1.822438 7.75,-4.236328 6.548202,-3.78836 7.534055,-4.546459 7.207031,-5.537109 -0.628742,-1.90464 -0.492867,-3.88821 0.285156,-4.15625 0.470394,-0.16206 1.943842,2.296028 4.111328,6.861328 1.857935,3.91329 3.722937,7.394205 4.144532,7.734375 0.421594,0.34017 4.065054,1.85888 8.095703,3.375 4.030648,1.51612 7.259278,2.919771 7.173828,3.119141 -1.052638,2.45615 -8.910932,15.452359 -9.337891,15.443359 -0.315617,-0.0065 -3.20223,-2.516615 -6.414062,-5.578125 L 49.84375,59.904297 51.041016,54.34375 c 1.138037,-5.28939 1.148799,-5.680943 0.238281,-8.033203 -1.744836,-4.50765 -1.147141,-4.560883 -10.693359,0.966797 -5.197993,3.00987 -8.914643,5.532646 -9.210938,6.253906 -0.108003,0.262913 -0.451865,1.563808 -0.880859,3.265625 -0.06645,0.446354 -0.136238,0.892626 -0.208985,1.337891 -0.07944,0.478669 -0.167747,0.954891 -0.257812,1.43164 -0.08972,0.465919 -0.188828,0.929697 -0.292969,1.392578 -0.09691,0.436285 -0.204204,0.870152 -0.316406,1.302735 -0.09589,0.386938 -0.200762,0.773051 -0.310547,1.15625 -0.09584,0.355838 -0.20596,0.706476 -0.314453,1.058593 -0.123903,0.406329 -0.256653,0.810529 -0.398438,1.210938 -0.02673,0.0765 -0.05984,0.150561 -0.08789,0.226562 -0.124166,0.532329 -0.220131,0.907722 -0.345703,1.451172 -1.604434,6.94356 -3.174169,13.234099 -3.488282,13.980469 -0.314107,0.74637 -3.920405,6.5855 -8.013672,12.974609 -5.917586,9.236638 -7.4414059,12.028698 -7.4414059,13.628908 0,2.39975 1.7511489,4.84979 4.2539059,5.94922 2.321145,1.01964 4.854434,0.49277 6.707032,-1.39649 1.547885,-1.57852 16.603387,-25.101133 17.6875,-27.634762 0.337618,-0.78904 1.252959,-4.116382 2.033203,-7.394532 0.780243,-3.27815 1.532241,-6.075204 1.671875,-6.214844 0.313924,-0.313919 14.04606,10.858667 14.09375,11.466797 0.01893,0.24138 -3.876414,7.167235 -8.65625,15.390625 -7.637848,13.140436 -8.58942,15.053156 -7.84961,15.792966 0.462981,0.463 1.2096,0.69673 1.660157,0.51953 0.450556,-0.1772 4.046984,-5.92499 7.992187,-12.77148 l 7.173828,-12.447266 0.28711,10.501954 0.287109,10.501952 1.873047,1.67383 c 2.166608,1.93426 5.880965,2.29304 8.044922,0.77734 2.768,-1.93878 2.995098,-3.27534 2.980468,-17.582029 -0.0075,-7.35375 -0.245753,-14.37163 -0.529296,-15.59375 -0.283544,-1.22211 -1.287752,-3.028425 -2.230469,-4.015625 l -1.712891,-1.794922 5.052735,-8.59375 c 4.283857,-7.28512 5.312858,-8.659726 6.761718,-9.035156 1.9833,-0.51393 2.764804,-1.315292 3.277344,-3.357422 0.65878,-2.62476 -1.142063,-3.921795 -9.507812,-6.853515 L 62.671875,43.140625 59.041016,33.447266 C 57.044525,28.115526 54.800073,22.95008 54.052734,21.96875 52.283624,19.64571 49.371743,18.300781 46.107422,18.300781 Z" />
  <path
     id="path1729"
     style="fill:#000000;stroke-width:0.57384771"
     d="m 22.307292,0.47796717 c -2.049372,0.03339 -4.094831,0.3783412 -5.523438,1.02734373 -2.509148,1.139881 -5.758547,4.4894834 -6.679687,6.8847654 -0.606626,1.577422 -6.80594,26.6877267 -6.619141,26.8105467 0.0586,0.03852 4.559527,1.173331 10.003907,2.519531 5.572905,1.37798 9.895825,2.730114 9.890625,3.095704 -0.02709,2.00206 -0.907175,1.978589 -10.298828,-0.275391 -5.190236,-1.24565 -9.724628,-2.153228 -10.078126,-2.017578 -0.94955,0.36438 -2.769372,9.721484 -2.33789,12.021484 0.659328,3.51453 2.688234,4.612672 12.96875,7.013672 4.260819,0.9951 7.73436,2.041342 7.71875,2.326172 -0.01562,0.28483 -0.239751,1.741018 -0.496094,3.236328 -0.256344,1.4953 -0.315973,3.110581 -0.132812,3.587891 0.449317,1.17093 2.451028,1.103896 2.912109,-0.09766 1.458554,-3.80095 12.375624,-50.75887 12.365234,-53.1875 C 35.978551,8.2589903 32.659269,3.3297674 27.854167,1.3256204 26.41034,0.72341837 24.356664,0.44457407 22.307292,0.47796417 Z M 15.95573,13.059998 c 1.55834,0 1.592075,0.456004 0.398437,5.208984 -0.633522,2.52264 -1.01008,4.726238 -0.837891,4.898438 0.389137,0.38913 9.09884,2.643047 9.291016,2.404297 0.07689,-0.09553 0.645973,-2.238742 1.265625,-4.763672 0.963817,-3.92733 1.28736,-4.563921 2.234375,-4.394531 0.608847,0.10891 1.18465,0.274287 1.28125,0.367187 0.156327,0.15033 -0.449909,2.756354 -2.240234,9.621094 -0.712937,2.73367 0.253787,2.789263 -13.208985,-0.748047 l -2.074219,-0.544922 1.480469,-6.02539 c 1.120874,-4.5622 1.705906,-6.023438 2.410157,-6.023438 z"
     inkscape:connector-curvature="0" />
</svg>
